<?xml version="1.0" encoding="UTF-8"?>
<svg width="66px" height="66px" viewBox="0 0 66 66" version="1.1" xmlns="http://www.w3.org/2000/svg" xmlns:xlink="http://www.w3.org/1999/xlink">
    <!-- Generator: Sketch 55.2 (78181) - https://sketchapp.com -->
    <title>logo icon</title>
    <desc>Created with Sketch.</desc>
    <g id="logo" stroke="none" stroke-width="1" fill="none" fill-rule="evenodd">
        <g transform="translate(-87.000000, -173.000000)" id="logo-icon">
            <g transform="translate(87.000000, 173.000000)">
                <g>
                    <path d="M33.1875,63.1275 L32.6625,63.1275 L32.6625,65.94 L33.1875,65.94 L33.1875,63.1275 Z M32.6625,45.8325 L32.6625,48.9075 L33.1875,48.9075 L33.1875,45.8325 C33.0975,45.8325 33.015,45.8625 32.925,45.8625 C32.835,45.8625 32.7525,45.84 32.6625,45.8325 L32.6625,45.8325 Z M0,33.2775 L2.7225,33.2775 L2.7225,32.6625 L0,32.6625 L0,33.2775 Z M20.0625,32.6625 L17.025,32.6625 L17.025,33.2775 L20.0625,33.2775 C20.0625,33.1725 20.0325,33.075 20.0325,32.97 C20.0325,32.865 20.0625,32.7675 20.0625,32.6625 L20.0625,32.6625 Z M32.6625,2.8125 L33.1875,2.8125 L33.1875,7.10542736e-15 L32.6625,7.10542736e-15 L32.6625,2.8125 Z M33.1875,20.1 L33.1875,17.025 L32.6625,17.025 L32.6625,20.1 C32.7525,20.1 32.835,20.07 32.925,20.07 C33.015,20.07 33.0975,20.1 33.1875,20.1 L33.1875,20.1 Z M45.7875,33.2775 L48.825,33.2775 L48.825,32.6625 L45.7875,32.6625 C45.7875,32.7675 45.8175,32.865 45.8175,32.97 C45.8175,33.075 45.7875,33.1725 45.7875,33.2775 L45.7875,33.2775 Z M65.85,32.6625 L63.1275,32.6625 L63.1275,33.2775 L65.85,33.2775 L65.85,32.6625 Z" id="Shape" fill="#58595B" fill-rule="nonzero"></path>
                    <path d="M31.9425,15.7725 L31.9425,4.1775 C16.8525,4.6875 4.7175,16.815 4.1775,31.9875 L15.6825,31.9875 C16.1625,23.265 23.2275,16.2675 31.9425,15.7725" id="Path" fill="#00AB4E" fill-rule="nonzero"></path>
                    <path d="M31.9425,50.1675 C23.1825,49.6725 16.2075,42.7125 15.69,33.9525 L4.1775,33.9525 C4.6725,49.08 16.8225,61.245 31.9425,61.7625 L31.9425,50.1675 L31.9425,50.1675 Z" id="Path" fill="#25408F" fill-rule="nonzero"></path>
                    <path d="M61.6725,31.98 C61.1775,16.8525 49.0275,4.6875 33.9075,4.17 L33.9075,15.765 C42.6675,16.26 49.6425,23.22 50.16,31.98 L61.6725,31.98 Z" id="Path" fill="#0071A6" fill-rule="nonzero"></path>
                    <path d="M61.6725,33.9525 L50.16,33.9525 C49.6425,42.7125 42.6675,49.6725 33.9075,50.1675 L33.9075,61.7625 C49.08,61.2525 61.14,49.125 61.6725,33.9525" id="Path" fill="#00AEEF" fill-rule="nonzero"></path>
                </g>
            </g>
        </g>
    </g>
</svg>