<?xml version="1.0" encoding="UTF-8"?>
<svg width="564px" height="88px" viewBox="0 0 564 88" version="1.1" xmlns="http://www.w3.org/2000/svg" xmlns:xlink="http://www.w3.org/1999/xlink">
    <!-- Generator: Sketch 55 (78076) - https://sketchapp.com -->
    <title>Supportec_Logo</title>
    <desc>Created with Sketch.</desc>
    <g id="Page-1" stroke="none" stroke-width="1" fill="none" fill-rule="evenodd">
        <g id="Login-page" transform="translate(-438.000000, -195.000000)" fill-rule="nonzero">
            <g id="Loging-#2" transform="translate(438.000000, 195.000000)">
                <g id="Supportec_Logo">
                    <g id="Group">
                        <path d="M563.32,70.79 L552.21,59.8 C547.77,64.48 542.15,66.93 535.72,66.93 C522.97,66.93 512.68,56.64 512.68,43.9 C512.68,31.27 523.09,20.98 535.72,20.98 C542.15,20.98 547.88,23.55 552.32,28 L563.19,17.01 C555.94,9.88 546.24,5.55 535.71,5.55 C514.55,5.55 497.36,22.74 497.36,44.02 C497.36,65.18 514.55,82.37 535.71,82.37 C546.36,82.37 555.95,78.04 563.32,70.79 L563.32,70.79 Z M492.16,80.85 L492.16,65.53 L459.3,65.53 L459.3,51.62 L484.91,51.62 L484.91,36.3 L459.3,36.3 L459.3,22.38 L492.15,22.38 L492.15,7.07 L443.98,7.07 L443.98,80.85 L492.16,80.85 Z M437.76,22.38 L437.76,7.07 L389.47,7.07 L389.47,22.39 L405.96,22.39 L405.96,80.85 L421.28,80.85 L421.28,22.38 L437.76,22.38 Z M368.52,31.15 C368.52,35.94 364.54,39.92 359.63,39.92 L349.11,39.92 L349.11,22.38 L359.75,22.38 C364.54,22.38 368.52,26.36 368.52,31.15 L368.52,31.15 Z M385.94,80.85 L366.53,54.3 C376.59,51.26 383.83,42.02 383.83,31.15 C383.83,17.82 372.96,7.06 359.63,7.06 L333.79,7.06 L333.79,80.84 L349.11,80.84 L349.11,56.17 L367,80.85 L385.94,80.85 Z M229.17,31.5 L229.17,30.8 L222.62,30.8 L222.62,24.25 L221.8,24.25 L221.8,30.8 L213.38,30.8 L213.38,31.5 L221.8,31.5 L221.8,38.16 L222.62,38.16 L222.62,31.5 L229.17,31.5 Z M231.04,31.15 C231.04,35.94 227.06,39.92 222.15,39.92 L211.63,39.92 L211.63,22.38 L222.27,22.38 C227.06,22.38 231.04,26.36 231.04,31.15 L231.04,31.15 Z M197.01,82.72 L196.31,82.72 L196.31,86.35 L197.01,86.35 L197.01,82.72 Z M194.44,80.14 L190.81,80.14 L190.81,80.84 L194.44,80.84 L194.44,80.14 Z M211.63,82.72 L210.93,82.72 L210.93,86.35 L211.63,86.35 L211.63,82.72 Z M217.12,80.14 L213.38,80.14 L213.38,80.84 L217.12,80.84 L217.12,80.14 Z M194.44,30.8 L190.81,30.8 L190.81,31.5 L194.44,31.5 L194.44,30.8 Z M222.62,57.11 L221.8,57.11 L221.8,60.74 L222.62,60.74 L222.62,57.11 Z M246.35,31.15 C246.35,17.82 235.48,7.06 222.15,7.06 L196.31,7.06 L196.31,80.84 L211.63,80.84 L211.63,55.24 L222.27,55.24 C235.48,55.24 246.35,44.48 246.35,31.15 L246.35,31.15 Z M194.44,7.07 L190.81,7.07 L190.81,7.77 L194.44,7.77 L194.44,7.07 Z M197.01,1.57 L196.31,1.57 L196.31,5.2 L197.01,5.2 L197.01,1.57 Z M222.62,1.57 L221.8,1.57 L221.8,5.2 L222.62,5.2 L222.62,1.57 Z M169.84,31.5 L169.84,30.8 L163.29,30.8 L163.29,24.25 L162.47,24.25 L162.47,30.8 L154.05,30.8 L154.05,31.5 L162.47,31.5 L162.47,38.16 L163.29,38.16 L163.29,31.5 L169.84,31.5 Z M171.6,31.15 C171.6,35.94 167.74,39.92 162.83,39.92 L152.3,39.92 L152.3,22.38 L162.94,22.38 C167.73,22.38 171.71,26.36 171.71,31.15 L171.6,31.15 Z M172.41,31.15 C172.41,25.89 168.08,21.68 162.82,21.68 L151.6,21.68 L151.6,40.62 L162.94,40.62 C168.2,40.62 172.41,36.42 172.41,31.15 L172.41,31.15 Z M186.33,31.15 C186.33,44.01 175.69,54.53 162.83,54.53 L151.6,54.53 L151.6,80.14 L137.69,80.14 L137.69,7.77 L162.95,7.77 C175.8,7.77 186.33,18.29 186.33,31.15 L186.33,31.15 Z M137.69,82.72 L136.99,82.72 L136.99,86.35 L137.69,86.35 L137.69,82.72 Z M135.12,80.14 L131.49,80.14 L131.49,80.84 L135.12,80.84 L135.12,80.14 Z M152.3,82.72 L151.6,82.72 L151.6,86.35 L152.3,86.35 L152.3,82.72 Z M157.8,80.14 L154.06,80.14 L154.06,80.84 L157.8,80.84 L157.8,80.14 Z M135.12,54.54 L131.49,54.54 L131.49,55.24 L135.12,55.24 L135.12,54.54 Z M135.12,39.92 L131.49,39.92 L131.49,40.62 L135.12,40.62 L135.12,39.92 Z M135.12,30.8 L131.49,30.8 L131.49,31.5 L135.12,31.5 L135.12,30.8 Z M163.29,57.11 L162.47,57.11 L162.47,60.74 L163.29,60.74 L163.29,57.11 Z M135.12,21.68 L131.49,21.68 L131.49,22.38 L135.12,22.38 L135.12,21.68 Z M187.03,31.15 C187.03,17.82 176.16,7.06 162.83,7.06 L136.99,7.06 L136.99,80.84 L152.31,80.84 L152.31,55.24 L162.95,55.24 C176.15,55.24 187.03,44.48 187.03,31.15 L187.03,31.15 Z M135.12,7.07 L131.49,7.07 L131.49,7.77 L135.12,7.77 L135.12,7.07 Z M137.69,1.57 L136.99,1.57 L136.99,5.2 L137.69,5.2 L137.69,1.57 Z M152.3,1.57 L151.6,1.57 L151.6,5.2 L152.3,5.2 L152.3,1.57 Z M192.52,30.8 L188.78,30.8 L188.78,31.5 L192.52,31.5 L192.52,30.8 Z M163.29,1.57 L162.47,1.57 L162.47,5.2 L163.29,5.2 L163.29,1.57 Z M120.97,56.41 C120.97,70.32 109.63,81.55 95.72,81.55 C81.92,81.55 70.58,70.21 70.58,56.41 L70.58,7.77 L84.49,7.77 L84.49,56.41 C84.49,62.72 89.52,67.75 95.83,67.75 C102.03,67.75 107.05,62.61 107.05,56.41 L107.05,7.77 L120.96,7.77 L120.96,56.41 L120.97,56.41 Z M96.18,84.12 L95.36,84.12 L95.36,87.86 L96.18,87.86 L96.18,84.12 Z M68,56.06 L64.37,56.06 L64.37,56.76 L68,56.76 L68,56.06 Z M104.48,56.76 L104.48,56.06 L96.18,56.06 L96.18,47.64 L95.36,47.64 L95.36,56.06 L86.94,56.06 L86.94,56.76 L95.36,56.76 L95.36,65.18 L96.18,65.18 L96.18,56.76 L104.48,56.76 L104.48,56.76 Z M121.67,56.41 L121.67,7.07 L106.35,7.07 L106.35,56.41 C106.35,62.26 101.56,66.93 95.71,66.93 C89.86,66.93 85.19,62.25 85.19,56.41 L85.19,7.07 L69.87,7.07 L69.87,56.41 C69.87,70.67 81.45,82.37 95.83,82.37 C110.09,82.37 121.67,70.67 121.67,56.41 L121.67,56.41 Z M68,7.07 L64.37,7.07 L64.37,7.77 L68,7.77 L68,7.07 Z M70.57,1.57 L69.87,1.57 L69.87,5.2 L70.57,5.2 L70.57,1.57 Z M127.17,56.06 L123.54,56.06 L123.54,56.76 L127.17,56.76 L127.17,56.06 Z M90.69,7.07 L86.95,7.07 L86.95,7.77 L90.69,7.77 L90.69,7.07 Z M85.19,1.57 L84.49,1.57 L84.49,5.2 L85.19,5.2 L85.19,1.57 Z M104.48,7.07 L100.85,7.07 L100.85,7.77 L104.48,7.77 L104.48,7.07 Z M107.05,1.57 L106.35,1.57 L106.35,5.2 L107.05,5.2 L107.05,1.57 Z M127.17,7.07 L123.54,7.07 L123.54,7.77 L127.17,7.77 L127.17,7.07 Z M121.67,1.57 L120.97,1.57 L120.97,5.2 L121.67,5.2 L121.67,1.57 Z M57.64,58.16 C57.64,70.79 46.41,81.54 31.92,81.54 C17.77,81.54 6.43,71.13 6.31,58.51 L20.11,58.51 C20.34,63.89 25.84,67.75 31.92,67.75 C38.23,67.75 43.73,63.77 43.73,58.16 C43.73,51.73 37.18,49.74 31.22,49.04 C19.29,47.76 8.3,41.44 8.3,27.88 C8.3,16.3 18.83,6.37 31.92,6.37 C45.13,6.37 55.31,15.72 55.54,27.53 L41.63,27.53 C41.4,23.09 36.84,20.16 31.92,20.16 C26.77,20.16 22.21,23.32 22.21,27.88 C22.21,33.49 27.82,34.78 32.62,35.36 C45.95,36.88 57.64,44.13 57.64,58.16 L57.64,58.16 Z M3.74,58.51 L3.74,57.81 L0,57.81 L0,58.52 L3.74,58.51 Z M32.27,84.12 L31.57,84.12 L31.57,87.86 L32.27,87.86 L32.27,84.12 Z M6.31,52.32 L5.5,52.32 L5.5,56.06 L6.32,56.06 L6.32,52.32 L6.31,52.32 Z M20.93,52.32 L20.11,52.32 L20.11,56.06 L20.93,56.06 L20.93,52.32 Z M41.16,58.63 L41.16,57.81 L32.27,57.81 L32.27,51.73 L31.57,51.73 L31.57,57.81 L22.68,57.81 L22.68,58.63 L31.57,58.63 L31.57,65.18 L32.27,65.18 L32.27,58.52 L41.16,58.63 Z M5.73,27.53 L2.1,27.53 L2.1,28.23 L5.73,28.23 L5.73,27.53 Z M58.35,58.16 C58.35,43.78 46.42,36.18 32.74,34.54 C28.3,34.07 22.92,33.02 22.92,27.88 C22.92,23.79 27.25,20.98 31.92,20.98 C36.6,20.98 40.92,23.67 40.92,28.23 L56.24,28.23 C56.24,15.48 45.6,5.55 31.92,5.55 C18.36,5.55 7.6,15.95 7.6,27.88 C7.6,41.91 18.83,48.46 31.1,49.86 C36.71,50.44 43.03,52.2 43.03,58.16 C43.03,63.3 37.77,66.93 31.92,66.93 C26.07,66.93 20.93,63.3 20.93,57.81 L5.5,57.81 C5.5,71.37 17.19,82.36 31.92,82.36 C46.89,82.37 58.35,71.26 58.35,58.16 L58.35,58.16 Z M63.84,57.81 L60.21,57.81 L60.21,58.63 L63.84,58.63 L63.84,57.81 Z M39.05,28.23 L39.05,27.53 L32.27,27.53 L32.27,22.74 L31.57,22.74 L31.57,27.53 L24.9,27.53 L24.9,28.23 L31.56,28.23 L31.56,32.67 L32.26,32.67 L32.26,28.23 L39.05,28.23 Z M41.51,30.1 L40.81,30.1 L40.81,33.73 L41.51,33.73 L41.51,30.1 Z M56.24,30.1 L55.42,30.1 L55.42,33.73 L56.24,33.73 L56.24,30.1 Z M32.27,0.05 L31.57,0.05 L31.57,3.79 L32.27,3.79 L32.27,0.05 Z M61.62,27.53 L57.99,27.53 L57.99,28.23 L61.62,28.23 L61.62,27.53 Z" id="Shape" fill="#FFFFFF"></path>
                        <path d="M186.66,33.03 C186.43,32.21 185.73,31.86 185.14,31.98 L178.12,32.8 L186.19,27.3 C186.66,26.95 186.56,26.25 186.33,25.55 C186.1,24.96 185.73,24.61 185.14,24.61 L176.95,25.66 L183.5,19.93 C183.97,19.46 183.33,19.01 182.98,18.31 C182.63,17.73 182.8,17.24 182.22,17.36 L173.92,19.35 L179.5,14.22 C179.97,13.75 178.75,13.48 178.28,12.89 C177.93,12.31 177.38,11.82 176.68,12.17 L167.37,15.48 L173.1,10.45 C173.69,9.98 172.73,9.93 172.38,9.35 C172.03,8.65 170.93,8.39 170.23,8.74 L150.89,17.46 L163.05,8.69 C163.63,8.22 163.84,7.88 163.49,7.3 C160.76,7.89 159.27,7.07 158.68,7.3 L146.21,12.43 L150.3,8.92 C150.88,8.45 151,7.92 150.65,7.22 C149.62,7.69 149.16,7.07 148.35,7.3 L145.13,7.35 L137.44,9.39 C136.62,9.62 137.3,9.84 137.19,11.44 C137.42,12.26 137.44,12.43 138.14,12.31 L143.64,10.79 L137.44,16.17 C136.97,16.64 137.02,17.46 137.48,18.04 C137.83,18.62 138.26,18.86 138.96,18.51 L151.35,13.48 L137.76,23.15 C137.18,23.62 137.41,25.14 137.41,25.14 C137.64,25.96 137.91,26.92 138.73,26.69 L144.69,25.29 L138.61,30.44 C138.14,30.79 138.02,31.61 138.26,32.19 C138.61,32.77 139.2,33.12 139.9,33.01 L144.46,32.19 L137.56,37.33 C136.98,37.8 137.02,38.5 137.26,39.08 C137.49,39.78 138.03,40.13 138.62,40.02 L145.63,38.85 L137.7,44.38 C137.23,44.73 137,45.55 137.23,46.13 C137.46,46.83 138.17,47.18 138.87,47.06 L147.74,45.27 L137.68,50.65 C137.1,51 137.02,51.7 137.37,52.4 C137.6,53.1 137.91,53.57 138.61,53.45 L145.39,52.28 L137.79,58.13 C137.21,58.48 137.09,59.18 137.32,59.88 C137.67,60.46 138.26,60.82 138.96,60.7 L144.57,59.88 L137.55,64.79 C137.08,65.14 137.13,65.84 137.36,66.54 C137.48,67.12 137.9,67.47 138.6,67.36 L143.86,66.66 L138.03,70.23 C137.45,70.7 137.21,71.4 137.45,71.98 C137.68,72.68 138.39,73.15 139.09,72.92 L146.09,72.5 L139.31,77.64 C138.84,77.99 138.61,78.69 138.84,79.39 C139.19,79.98 139.78,80.21 140.48,80.09 L148.43,78.57 C148.43,78.57 149.83,77.75 149.6,76.93 C149.48,76.11 147.85,75.76 147.85,75.76 L145.98,76.11 L151.54,72.19 C152.12,71.72 152.36,71.02 152.01,70.44 C151.78,69.74 151.08,69.39 150.37,69.5 L144.46,69.8 L151.12,65.71 C151.7,65.36 151.94,64.54 151.7,63.96 C151.47,63.26 150.76,62.91 150.06,62.91 L144.1,63.73 L151.47,58.58 C151.94,58.23 152.17,57.53 151.94,56.83 C151.71,56.25 151.01,55.89 150.3,55.89 L144.1,57 L151.82,50.92 C152.29,50.57 152.52,49.87 152.29,49.28 C151.94,48.58 151.35,48.23 150.65,48.46 L146.91,49.04 L158.37,42.96 C158.95,42.61 159.19,41.79 158.95,41.09 C158.72,40.39 158.01,40.04 157.31,40.27 L144.45,42.96 L151.56,38.01 C152.14,37.66 152.38,36.96 152.14,36.26 C151.79,35.56 151.21,35.21 150.5,35.33 L144.21,36.07 L151.11,30.93 C151.69,30.58 151.93,29.76 151.58,29.18 C151.35,28.48 150.76,28.24 150.06,28.36 L144.56,29.3 L151.22,23.57 C151.69,23.1 151.92,22.4 151.57,21.7 C151.22,21.23 150.64,20.88 150.05,21 L163.73,14.8 L159.29,18.66 C158.82,19.01 158.71,19.83 159.06,20.41 C159.41,21.11 160.23,21.35 160.81,21.11 L172.5,16.67 L167.82,21.11 C167.35,21.58 167.24,22.28 167.59,22.86 C167.82,23.44 168.53,23.68 169.23,23.56 L177.06,21.57 L171.56,26.48 C170.97,26.95 170.86,27.65 171.21,28.23 C171.44,28.81 172.03,29.17 172.73,29.05 L179.51,28.23 L171.68,33.73 C171.1,34.08 170.86,34.78 171.21,35.48 C171.44,36.06 172.03,36.42 172.73,36.3 L177.76,35.72 L155.89,47.3 C155.31,47.65 154.95,48.47 155.31,49.17 C155.54,49.87 156.36,50.22 157.06,49.99 L171.21,46.01 L162.91,50.69 C162.33,51.04 161.97,51.74 162.33,52.44 C162.56,53.14 163.15,53.61 163.97,53.49 L173.68,51.85 C174.5,51.73 174.97,51.03 174.85,50.21 C174.73,49.39 173.21,48.92 173.21,48.92 L171.34,49.27 L183.27,42.49 C183.86,42.26 184.21,41.44 183.86,40.74 C183.63,40.04 182.92,39.69 182.11,39.92 L169.37,43.55 L185.97,34.66 C186.55,34.31 186.9,33.61 186.66,33.03" id="Path" fill="#FFFFFF"></path>
                        <path d="M121.58,24.46 C121.36,23.9 120.82,23.44 120.05,23.56 L112.63,24.69 L119.4,19.95 C119.95,19.61 120.17,18.82 119.84,18.26 C119.62,17.7 118.97,17.24 118.42,17.36 L113.51,18.26 L120.61,12.84 C121.05,12.5 121.26,11.82 121.05,11.15 C120.83,10.59 120.18,10.25 119.52,10.36 L112.2,11.38 L114.06,9.91 C114.61,9.46 114.82,8.56 114.28,7.88 C113.84,7.32 112.42,7.65 112.42,7.65 L106.97,12 C106.43,12.45 106.32,13.02 106.53,13.69 C106.86,14.25 107.4,14.59 107.95,14.48 L114.6,13.85 L107.29,19.38 C106.85,19.83 106.63,20.51 106.85,21.07 C107.07,21.63 107.72,22.09 108.27,21.97 L112.86,21.18 L106.92,25.81 C106.37,26.15 106.26,26.94 106.48,27.5 C106.59,28.18 107.24,28.52 107.9,28.4 L114.5,27.27 L106.75,32.57 C106.31,33.02 106.48,33.7 106.7,34.26 C106.81,34.82 107.08,35.28 107.73,35.16 L113.63,34.37 L106.64,40.01 C106.2,40.35 106.21,41.03 106.53,41.59 C106.75,42.27 107.07,42.61 107.73,42.49 L114.28,41.7 L107.62,46.67 C107.07,47.12 106.86,47.8 107.18,48.36 C107.4,48.92 107.95,49.38 108.6,49.26 L113.62,48.47 L107.29,53.44 C106.74,53.89 106.63,54.57 106.85,55.13 C107.07,55.7 107.61,56.03 108.27,56.03 L113.62,55.58 L106.52,60.32 C105.97,60.66 105.76,61.34 105.97,62.01 C106.19,62.69 106.84,63.03 107.5,62.91 L108.81,62.68 L101.71,65.15 L99.51,66.71 L96.16,67.07 L86.72,70.35 L90,67.12 C90.55,66.67 89.99,65.99 89.78,65.43 C89.45,64.86 88.91,64.53 88.25,64.75 L80.84,66 L85.75,61.6 C86.19,61.26 85.74,60.47 85.52,59.91 C85.3,59.35 85.2,59.01 84.54,59.12 L77.88,60.25 L84.54,54.95 C84.98,54.5 85.19,53.82 84.87,53.26 C84.76,52.7 84.11,52.25 83.45,52.36 L76.46,53.49 L84.78,47.85 C85.22,47.4 85.32,46.72 85,46.16 C84.78,45.6 84.35,45.26 83.69,45.37 L77.25,46.39 L84.45,40.86 C84.99,40.52 85.1,39.73 84.89,39.17 C84.78,38.61 84.13,38.27 83.47,38.27 L78.01,39.06 L81.94,34.4 C82.49,34.06 83.2,32.89 82.98,32.21 C82.76,31.64 82.22,31.31 81.56,31.42 L77.12,31.83 L83.89,26.75 C84.44,26.3 84.55,25.62 84.33,25.06 C84.11,24.5 83.46,24.16 82.91,24.16 L77.56,24.95 L84.26,19.76 C84.81,19.42 85.03,18.63 84.81,18.07 C84.59,17.39 83.94,17.05 83.28,17.17 L77.45,18.19 L84.22,12.88 C84.66,12.54 84.77,11.86 84.55,11.3 C84.44,10.62 83.79,10.28 83.24,10.4 L77.13,10.96 L78.22,10.28 C78.87,9.83 78.87,8.93 78.44,8.36 C78,7.64 76.58,7.98 76.58,7.98 L71.45,11.71 C70.9,12.16 70.79,12.84 71.01,13.4 C71.23,13.96 71.77,14.3 72.43,14.3 L78.65,13.62 L71.66,19.15 C71.22,19.49 71.01,20.17 71.33,20.73 C71.55,21.41 72.09,21.75 72.75,21.63 L78.65,20.73 L70.9,25.81 C70.46,26.15 70.24,26.94 70.46,27.5 C70.57,28.06 71.22,28.52 71.88,28.4 L78.1,27.61 L71.11,32.92 C70.67,33.37 70.46,34.05 70.67,34.61 C70.89,35.18 71.54,35.51 72.2,35.4 L78.97,34.38 L72.11,39.91 C71.56,40.25 71.34,41.04 71.56,41.6 C71.78,42.16 72.43,42.62 72.98,42.5 L78.98,41.71 L70.9,47.58 C70.35,47.92 70.14,48.71 70.35,49.27 C70.68,49.83 71.33,50.29 71.88,50.17 L79.09,48.93 L70.88,54.35 C70.33,54.8 70.22,55.48 70.55,56.04 C70.77,56.6 71.31,57.06 71.97,56.94 L78.85,55.81 L71.97,61.45 C71.53,61.79 71.42,62.58 71.64,63.14 C71.86,63.7 72.51,64.04 73.06,63.93 L80.27,62.69 L75.03,67.32 C74.59,67.77 74.48,68.45 74.7,69.01 C75.14,69.57 75.68,69.91 76.23,69.8 L85.29,67.88 L80.18,73 C79.74,73.56 79.63,74.24 79.96,74.81 C80.29,75.37 80.94,75.6 81.6,75.37 L104.44,67.36 L87.52,77.51 C86.97,77.96 86.65,78.64 86.97,79.32 C87.3,80 88.06,80.34 88.61,80.11 L107.28,73.11 L101.27,77.63 C100.72,78.08 100.62,78.98 101.05,79.66 C101.49,80.23 102.36,80.34 103.02,79.89 L116.67,69.62 C117.22,69.17 117.33,68.49 117,67.81 C116.67,67.13 115.91,66.91 115.36,67.13 L102.04,72.1 L119.29,61.72 C120.6,60.93 119.73,60.14 119.73,59.69 C119.51,58.9 118.86,58.33 118.09,58.45 L113.29,59.24 L119.62,54.95 C120.17,54.61 120.38,53.93 120.27,53.26 C120.05,52.7 119.4,52.36 118.74,52.36 L112.63,52.92 L119.4,47.61 C119.95,47.16 120.06,46.48 119.84,45.92 C119.62,45.36 119.08,44.9 118.42,45.02 L113.51,45.81 L120.06,40.84 C120.5,40.5 120.72,39.71 120.39,39.15 C120.17,38.59 119.63,38.25 118.97,38.25 L112.2,39.15 L119.19,33.39 C119.63,33.05 119.84,32.37 119.63,31.81 C119.3,31.25 118.76,30.91 118.21,30.91 L113.19,31.59 L121.05,26.17 C121.58,25.7 121.8,25.02 121.58,24.46" id="Path" fill="#FFFFFF"></path>
                        <path d="M182.24,35.04 L186.66,32.4 C186.68,31.95 186.73,31.5 186.73,31.05 C186.73,29.7 186.59,28.38 186.37,27.09 L180.86,27.71 L185.66,24.03 C185.2,22.56 184.61,21.16 183.89,19.83 L177.29,21.21 L182.19,17.17 C181.37,16.05 180.47,14.99 179.47,14.02 L169.59,17.24 L176.32,12.07 C176.47,11.97 176.58,11.84 176.67,11.71 C175.72,11.03 174.72,10.42 173.68,9.89 L150.24,19.29 L164.52,10.27 C165.21,9.79 165.34,8.95 164.93,8.35 C164.52,7.63 160.73,8.13 160.04,8.37 L148.06,12.47 L152.87,8.86 C153.56,8.38 153.69,7.83 153.28,7.11 C152.07,7.59 151.54,6.95 150.57,7.19 L143.47,8.9 L137.01,10.4 L137.01,13.58 L141.72,12.44 L137.01,16.02 L137.01,20.1 L150.79,15.21 L137.01,26.09 L137.01,30.78 L142.96,27.35 L137.01,31.76 L137.01,35.24 C137.12,35.24 137.21,35.3 137.33,35.28 L142.68,34.44 L137,38.15 L137,42.33 L144.05,41.3 L137,45.22 L137,49.77 L146.52,47.92 L137,52.38 L137,56.16 L143.77,55.14 L137,59.7 L137,63.69 L142.81,62.95 L137,66.51 L137,70.5 L141.99,69.92 L137,72.65 L137,77.1 L144.6,75.93 L138.2,80.18 L152.3,80.18 C151.81,79.58 152.02,76.31 152.02,76.31 L144.46,79.65 L152.21,74.53 L152.21,71.98 C151.84,71.76 151.38,71.65 150.91,71.72 L142.67,73.16 L150.49,68.95 C151.18,68.59 151.45,67.75 151.18,67.15 C150.91,66.43 150.08,66.07 149.26,66.07 L142.26,66.91 L150.91,61.62 C151.46,61.26 151.73,60.54 151.46,59.82 C151.19,59.22 150.36,58.86 149.54,58.86 L142.26,59.94 L151.32,53.69 C151.87,53.33 152.14,52.61 151.87,52.01 C151.46,51.29 150.77,50.93 149.95,51.17 L145.56,51.77 L159.01,45.52 C159.7,45.16 159.97,44.32 159.7,43.6 C159.43,42.88 158.6,42.52 157.78,42.76 L142.68,45.53 L150.92,41.09 C150.93,41.09 152.02,40.49 152.03,40.48 L152.23,39.74 L152.23,37.06 C152.07,37.04 151.93,36.96 151.75,36.99 L142.41,38.43 L150.51,33.14 C151.2,32.78 151.47,31.94 151.06,31.34 C150.79,30.62 150.1,30.38 149.28,30.5 L142.83,31.46 L150.66,25.57 C151.21,25.09 151.48,24.37 151.07,23.65 C150.66,23.17 149.97,22.81 149.29,22.93 L165.35,16.56 L160.13,20.53 C159.58,20.89 159.44,21.73 159.86,22.33 C159.88,22.36 159.91,22.38 159.93,22.41 L162.8,22.41 C163.07,22.41 163.32,22.47 163.59,22.49 L175.64,18.48 L170.15,23.05 C169.6,23.53 169.46,24.25 169.88,24.85 C170.15,25.45 170.98,25.69 171.8,25.57 L181,23.53 L174.55,28.58 C173.86,29.06 173.73,29.78 174.14,30.38 C174.41,30.98 175.1,31.34 175.93,31.22 L183.89,30.38 L174.69,36.03 C174,36.39 173.73,37.11 174.14,37.83 C174.41,38.43 175.1,38.79 175.93,38.67 L181.83,38.07 L153.95,51.63 C153.26,51.99 152.85,52.83 153.26,53.55 C153.53,54.27 154.5,54.63 155.32,54.39 L174.14,48.64 L164.39,53.45 C163.84,53.74 163.49,54.27 163.58,54.83 C171.92,54.56 179.23,50.01 183.3,43.28 L171.94,46.11 L184.96,40.01 C185.66,38.3 186.15,36.5 186.43,34.62 L182.24,35.04 Z" id="Path" fill="#FFFFFF"></path>
                        <path d="M289.38,84.17 L288.68,84.17 L288.68,87.92 L289.38,87.92 L289.38,84.17 Z M288.68,61.11 L288.68,65.21 L289.38,65.21 L289.38,61.11 C289.26,61.11 289.15,61.15 289.03,61.15 C288.91,61.15 288.8,61.12 288.68,61.11 L288.68,61.11 Z M245.13,44.37 L248.76,44.37 L248.76,43.55 L245.13,43.55 L245.13,44.37 Z M271.88,43.55 L267.83,43.55 L267.83,44.37 L271.88,44.37 C271.88,44.23 271.84,44.1 271.84,43.96 C271.84,43.82 271.88,43.69 271.88,43.55 L271.88,43.55 Z M288.68,3.75 L289.38,3.75 L289.38,0 L288.68,0 L288.68,3.75 Z M289.38,26.8 L289.38,22.7 L288.68,22.7 L288.68,26.8 C288.8,26.8 288.91,26.76 289.03,26.76 C289.15,26.76 289.26,26.8 289.38,26.8 L289.38,26.8 Z M306.18,44.37 L310.23,44.37 L310.23,43.55 L306.18,43.55 C306.18,43.69 306.22,43.82 306.22,43.96 C306.22,44.1 306.18,44.23 306.18,44.37 L306.18,44.37 Z M332.93,43.55 L329.3,43.55 L329.3,44.37 L332.93,44.37 L332.93,43.55 Z" id="Shape" fill="#58595B"></path>
                        <path d="M287.72,21.03 L287.72,5.57 C267.6,6.25 251.42,22.42 250.7,42.65 L266.04,42.65 C266.68,31.02 276.1,21.69 287.72,21.03" id="Path" fill="#00AB4E"></path>
                        <path d="M287.72,66.89 C276.04,66.23 266.74,56.95 266.05,45.27 L250.7,45.27 C251.36,65.44 267.56,81.66 287.72,82.35 L287.72,66.89 L287.72,66.89 Z" id="Path" fill="#25408F"></path>
                        <path d="M327.36,42.64 C326.7,22.47 310.5,6.25 290.34,5.56 L290.34,21.02 C302.02,21.68 311.32,30.96 312.01,42.64 L327.36,42.64 Z" id="Path" fill="#0071A6"></path>
                        <path d="M327.36,45.27 L312.01,45.27 C311.32,56.95 302.02,66.23 290.34,66.89 L290.34,82.35 C310.57,81.67 326.65,65.5 327.36,45.27" id="Path" fill="#00AEEF"></path>
                    </g>
                    <g id="Group" transform="translate(5.000000, 5.000000)" fill="#FFFFFF">
                        <path d="M26.92,3.2 C38.37,3.2 47.22,10.63 48.46,20.86 L38.03,20.86 C36.79,16.61 32.43,13.65 26.92,13.65 C20.49,13.65 15.46,17.76 15.46,23.01 C15.46,30.86 24.19,31.78 27.44,32.13 C32.9,32.78 50.71,36.23 50.71,53.2 C50.71,65.1 40.04,74.78 26.92,74.78 C20.47,74.78 14.46,72.48 9.98,68.3 C6.19,64.77 3.86,60.22 3.27,55.3 L13.77,55.3 C15.03,60.62 20.26,64.38 26.92,64.38 C34.52,64.38 40.47,59.45 40.47,53.15 C40.47,46.99 35.72,43.37 26.38,42.41 C20.02,41.67 5.22,38.32 5.22,23 C5.22,12.27 15.15,3.2 26.92,3.2 L26.92,3.2 Z M26.92,0.7 C13.42,0.7 2.72,11.06 2.72,23 C2.72,36.96 13.89,43.48 26.1,44.88 C31.69,45.46 37.97,47.2 37.97,53.14 C37.97,58.26 32.73,61.87 26.92,61.87 C21.1,61.87 15.98,58.26 15.98,52.79 L0.62,52.79 C0.62,66.36 12.25,77.28 26.92,77.28 C41.81,77.28 53.21,66.23 53.21,53.2 C53.21,38.89 41.34,31.27 27.73,29.64 C23.31,29.17 17.96,28.12 17.96,23.01 C17.96,18.94 22.26,16.15 26.92,16.15 C31.57,16.15 35.88,18.82 35.88,23.36 L51.11,23.36 C51.11,10.52 40.53,0.7 26.92,0.7 L26.92,0.7 Z" id="Shape"></path>
                        <path d="M157.77,4.66 C169.72,4.66 179.44,14.29 179.44,26.12 C179.44,31.89 177.22,37.3 173.19,41.36 C169.14,45.43 163.71,47.67 157.9,47.67 L147.31,47.67 L144.81,47.67 L144.81,50.17 L144.81,73.2 L134.57,73.2 L134.57,4.66 L157.77,4.66 L157.77,4.66 Z M144.81,37.35 L147.31,37.35 L157.77,37.35 C163.1,37.35 167.58,33.61 168.72,28.62 L169.11,28.62 L169.11,26.12 C169.11,19.93 164.08,14.89 157.89,14.89 L147.3,14.89 L144.8,14.89 L144.8,17.39 L144.8,34.84 L144.8,37.35 L144.81,37.35 Z M157.77,2.16 L132.07,2.16 L132.07,75.71 L147.31,75.71 L147.31,50.17 L157.9,50.17 C171.35,50.17 181.95,39.38 181.95,26.12 C181.94,12.86 171.2,2.16 157.77,2.16 L157.77,2.16 Z M147.31,34.85 L147.31,17.39 L157.9,17.39 C162.67,17.39 166.62,21.35 166.62,26.12 L166.51,26.12 C166.51,30.89 162.67,34.85 157.78,34.85 L147.31,34.85 L147.31,34.85 Z" id="Shape"></path>
                    </g>
                </g>
            </g>
        </g>
    </g>
</svg>