<?xml version="1.0" encoding="UTF-8"?>
<svg width="266px" height="257px" viewBox="0 0 266 257" version="1.1" xmlns="http://www.w3.org/2000/svg" xmlns:xlink="http://www.w3.org/1999/xlink">
    <!-- Generator: Sketch 56.3 (81716) - https://sketch.com -->
    <title>logo</title>
    <desc>Created with Sketch.</desc>
    <g id="logo" stroke="none" stroke-width="1" fill="none" fill-rule="evenodd">
        <g id="Group-2">
            <rect id="Rectangle" fill="#030011" x="0" y="0" width="266" height="257" rx="49"></rect>
            <g id="Group" transform="translate(19.000000, 15.000000)" fill-rule="nonzero">
                <path d="M114.999153,217.317903 L113.189358,217.317903 L113.189358,227 L114.999153,227 L114.999153,217.317903 Z M113.189358,157.779459 L113.189358,168.365218 L114.999153,168.365218 L114.999153,157.779459 C114.688902,157.779459 114.404506,157.882734 114.094255,157.882734 C113.784005,157.882734 113.499608,157.805278 113.189358,157.779459 L113.189358,157.779459 Z M0.594255319,114.558576 L9.97933505,114.558576 L9.97933505,112.441424 L0.594255319,112.441424 L0.594255319,114.558576 Z M69.7542781,112.441424 L59.2833214,112.441424 L59.2833214,114.558576 L69.7542781,114.558576 C69.7542781,114.197111 69.6508612,113.861465 69.6508612,113.5 C69.6508612,113.138535 69.7542781,112.802889 69.7542781,112.441424 L69.7542781,112.441424 Z M113.189358,9.68209736 L114.999153,9.68209736 L114.999153,0 L113.189358,0 L113.189358,9.68209736 Z M114.999153,69.1947225 L114.999153,58.6089627 L113.189358,58.6089627 L113.189358,69.1947225 C113.499608,69.1947225 113.784005,69.0914468 114.094255,69.0914468 C114.404506,69.0914468 114.688902,69.1947225 114.999153,69.1947225 L114.999153,69.1947225 Z M158.434233,114.558576 L168.905189,114.558576 L168.905189,112.441424 L158.434233,112.441424 C158.434233,112.802889 158.537649,113.138535 158.537649,113.5 C158.537649,113.861465 158.434233,114.197111 158.434233,114.558576 L158.434233,114.558576 Z M227.594255,112.441424 L218.209176,112.441424 L218.209176,114.558576 L227.594255,114.558576 L227.594255,112.441424 Z" id="Shape" fill="#58595B"></path>
                <path d="M111.594255,54.02589 L111.594255,14 C59.4192148,15.7605178 17.4613542,57.6245955 15.5942553,110 L55.3738339,110 C57.0334774,79.8899676 81.4613542,55.7346278 111.594255,54.02589" id="Path" fill="#00AB4E"></path>
                <path d="M111.594255,172.97411 C81.3057626,171.265372 57.1890689,147.239482 55.3997659,117 L15.5942553,117 C17.3057626,169.220065 59.3154871,211.213592 111.594255,213 L111.594255,172.97411 L111.594255,172.97411 Z" id="Path" fill="#25408F"></path>
                <path d="M213.594255,110 C211.882748,57.7799353 169.873024,15.7864078 117.594255,14 L117.594255,54.02589 C147.882748,55.7346278 171.999442,79.7605178 173.788745,110 L213.594255,110 Z" id="Path" fill="#0071A6"></path>
                <path d="M213.594255,117 L173.788745,117 C171.999442,147.239482 147.882748,171.265372 117.594255,172.97411 L117.594255,213 C170.054547,211.239482 211.753088,169.375405 213.594255,117" id="Path" fill="#00AEEF"></path>
            </g>
        </g>
    </g>
</svg>